<svg viewBox="0 0 400 300" xmlns="http://www.w3.org/2000/svg"><rect fill="#fff" height="131.24" rx="5.59" width="199.22" x="91.49" y="88.84"/><path d="m285.12 221.08h-188a6.59 6.59 0 0 1 -6.58-6.59v-120.06a6.59 6.59 0 0 1 6.58-6.59h188a6.6 6.6 0 0 1 6.59 6.59v120.06a6.6 6.6 0 0 1 -6.59 6.59zm-188.05-131.24a4.59 4.59 0 0 0 -4.58 4.59v120.06a4.59 4.59 0 0 0 4.58 4.59h188.05a4.6 4.6 0 0 0 4.59-4.59v-120.06a4.6 4.6 0 0 0 -4.59-4.59z" fill="#093f68"/><rect fill="#68e1fd" height="131.24" rx="5.59" width="199.22" x="101.04" y="79.92"/><g fill="#093f68"><path d="m294.67 212.16h-188a6.59 6.59 0 0 1 -6.58-6.59v-120.06a6.59 6.59 0 0 1 6.58-6.59h188a6.6 6.6 0 0 1 6.59 6.59v120.06a6.6 6.6 0 0 1 -6.59 6.59zm-188-131.24a4.59 4.59 0 0 0 -4.67 4.59v120.06a4.59 4.59 0 0 0 4.58 4.59h188.09a4.6 4.6 0 0 0 4.59-4.59v-120.06a4.6 4.6 0 0 0 -4.59-4.59z"/><path d="m150.32 205.75a1 1 0 0 1 -1-1v-105.13a1 1 0 0 1 2 0v105.13a1 1 0 0 1 -1 1z"/><path d="m200.65 205.75a1 1 0 0 1 -1-1v-105.13a1 1 0 1 1 2 0v105.13a1 1 0 0 1 -1 1z"/><path d="m251 205.75a1 1 0 0 1 -1-1v-105.13a1 1 0 0 1 2 0v105.13a1 1 0 0 1 -1 1z"/><path d="m123.14 189.58a1 1 0 0 1 -.71-1.71l46.7-47.07a1 1 0 0 1 1.39 0l39.36 36.94 73.12-71.38a1 1 0 1 1 1.4 1.43l-73.79 72a1 1 0 0 1 -1.38 0l-39.37-36.89-46 46.38a1 1 0 0 1 -.72.3z"/></g><path d="m143.14 105.88h-34.09a1 1 0 0 1 0-2h34.09a1 1 0 0 1 0 2z" fill="#fff"/><path d="m143.14 113.78h-34.09a1 1 0 1 1 0-2h34.09a1 1 0 0 1 0 2z" fill="#fff"/><path d="m126.09 121.69h-17a1 1 0 0 1 0-2h17a1 1 0 0 1 0 2z" fill="#fff"/><circle cx="123.14" cy="188.58" fill="#ffbc0e" r="5.26"/><path d="m123.14 194.84a6.26 6.26 0 1 1 6.26-6.26 6.27 6.27 0 0 1 -6.26 6.26zm0-10.52a4.26 4.26 0 1 0 4.26 4.26 4.26 4.26 0 0 0 -4.26-4.26z" fill="#093f68"/><circle cx="168.95" cy="140.28" fill="#f56132" r="5.26"/><path d="m169 146.54a6.26 6.26 0 1 1 6.26-6.26 6.27 6.27 0 0 1 -6.26 6.26zm0-10.54a4.26 4.26 0 1 0 4.26 4.26 4.26 4.26 0 0 0 -4.26-4.26z" fill="#093f68"/><circle cx="211.14" cy="176.7" fill="#70cc40" r="5.26"/><path d="m211.14 183a6.26 6.26 0 1 1 6.26-6.26 6.27 6.27 0 0 1 -6.26 6.26zm0-10.52a4.26 4.26 0 1 0 4.26 4.26 4.26 4.26 0 0 0 -4.26-4.3z" fill="#093f68"/><circle cx="283.68" cy="104.88" fill="#fff" r="5.26"/><path d="m283.68 111.13a6.26 6.26 0 1 1 6.26-6.25 6.26 6.26 0 0 1 -6.26 6.25zm0-10.51a4.26 4.26 0 1 0 4.26 4.26 4.26 4.26 0 0 0 -4.26-4.26z" fill="#093f68"/><path d="m275.73 164h7.89v14.41h-7.89z" fill="#fff" transform="matrix(-.68721431 .72645474 -.72645474 -.68721431 596.25 85.71)"/><path d="m282.2 180a1 1 0 0 1 -.69-.27l-10.51-9.89a1 1 0 0 1 -.31-.7 1 1 0 0 1 .27-.71l5.42-5.73a1 1 0 0 1 .7-.31 1 1 0 0 1 .72.27l10.47 9.9a1 1 0 0 1 0 1.42l-5.43 5.73a1 1 0 0 1 -.69.31zm-9.06-10.94 9 8.53 4-4.28-9-8.53z" fill="#093f68"/><path d="m265.43 156.25h12.11v14.41h-12.11z" fill="#fff" transform="matrix(-.68721431 .72645474 -.72645474 -.68721431 576.8 78.58)"/><path d="m272.56 173.8a1 1 0 0 1 -.69-.27l-10.47-9.9a1 1 0 0 1 0-1.42l8.32-8.79a1 1 0 0 1 .7-.32 1.14 1.14 0 0 1 .72.28l10.47 9.9a1 1 0 0 1 0 1.42l-8.33 8.79a1 1 0 0 1 -.72.31zm-9.06-10.94 9 8.53 6.94-7.34-9-8.53z" fill="#093f68"/><rect fill="#fff" height="33.01" rx="2.58" transform="matrix(-.68721431 .72645474 -.72645474 -.68721431 633.66 99.42)" width="12.11" x="289.38" y="169.6"/><path d="m303.16 201.78a3.56 3.56 0 0 1 -2.46-1l-20.24-19.15a3.59 3.59 0 0 1 -.13-5.06l4.77-5a3.6 3.6 0 0 1 5.06-.14l20.24 19.15a3.52 3.52 0 0 1 1.11 2.5 3.58 3.58 0 0 1 -1 2.56l-4.78 5-.73-.64.73.69a3.57 3.57 0 0 1 -2.57 1.09zm-15.46-29.34a1.54 1.54 0 0 0 -1.1.49l-4.78 5a1.58 1.58 0 0 0 .06 2.23l20.23 19.14a1.58 1.58 0 0 0 2.24-.06l4.77-5a1.51 1.51 0 0 0 .43-1.13 1.54 1.54 0 0 0 -.55-1.11l-20.23-19.14a1.58 1.58 0 0 0 -1.07-.42z" fill="#093f68"/><path d="m271.75 124.53a28.46 28.46 0 1 0 1.12 40.23 28.45 28.45 0 0 0 -1.12-40.23z" fill="#fff" stroke="#093f68" stroke-linecap="round" stroke-linejoin="round" stroke-width="2"/><ellipse cx="252.19" cy="145.2" fill="#68e1fd" rx="19.56" ry="19.57"/><path d="m252.19 165.77a20.57 20.57 0 1 1 20.56-20.57 20.6 20.6 0 0 1 -20.56 20.57zm0-39.14a18.57 18.57 0 1 0 18.56 18.57 18.59 18.59 0 0 0 -18.56-18.57z" fill="#093f68"/><path d="m253.35 158.67a1 1 0 0 1 -.93-.75c-3.26-12.82-4.84-19.17-5.61-22.32-1.26 3.16-3.29 8.43-4.7 12.09a1 1 0 0 1 -.93.65h-7.67a1 1 0 0 1 0-2h7c.47-1.23 1.55-4.05 2.65-6.86 3.21-8.25 3.21-8.25 4.12-8.09a1 1 0 0 1 .82.9c.16.89 3.07 12.49 5.43 21.79l4.41-13.47a1 1 0 0 1 .93-.69 1 1 0 0 1 .93.66l3.21 8.77h8.1a1 1 0 0 1 0 2h-8.8a1 1 0 0 1 -.94-.66l-2.49-6.69-4.58 14a1 1 0 0 1 -.95.67z" fill="#fff"/><path d="m300.26 85.51v7.49h-199.26v-7.5a5.58 5.58 0 0 1 5.58-5.59h188.09a5.59 5.59 0 0 1 5.59 5.6z" fill="#093f68"/><path d="m300.26 94h-199.26a1 1 0 0 1 -1-1v-7.5a6.59 6.59 0 0 1 6.58-6.59h188.09a6.6 6.6 0 0 1 6.59 6.59v7.5a1 1 0 0 1 -1 1zm-198.26-2h197.26v-6.5a4.6 4.6 0 0 0 -4.59-4.59h-188a4.59 4.59 0 0 0 -4.67 4.6z" fill="#093f68"/><circle cx="112.76" cy="86.63" fill="#f56132" r="2.22"/><circle cx="119.7" cy="86.63" fill="#ffbc0e" r="2.22"/><circle cx="126.64" cy="86.63" fill="#70cc40" r="2.22"/></svg>